# xmcd CD database file
#
# Track frame offsets:
#	150
#	14231
#	29502
#	42597
#	51497
#	65059
#	80065
#	91263
#	106588
#	120202
#	132310
#	149946
#	165090
#	180973
#	193255
#	208494
#	225296
#	238531
#	262410
#	280464
#
# Disc length: 3950 seconds
#
# Revision: 1
# Processed by: cddbd v1.5PL3 Copyright (c) Steve Scherf et al.
# Submitted via: CDex 1.51
#
DISCID=310f6c14
DTITLE=Jazz Artists - Jazz Hooked on Films
DYEAR=1900
DGENRE=Jazz
TTITLE0=Cheek To Cheek
TTITLE1=I Can`t Give You Anything But Love
TTITLE2=Besa Mucho
TTITLE3=The Way We Were
TTITLE4=Someone To Watch Over Me
TTITLE5=Stranger On The Shore
TTITLE6=The Lady Is A Tramp
TTITLE7=Take 5
TTITLE8=The Very Thought Of You
TTITLE9=Love Letters
TTITLE10=Stardust
TTITLE11=Come Rain Or Come Shine
TTITLE12=To Love Somebody
TTITLE13=Prelude To A Kiss
TTITLE14=Isn't It Romantic
TTITLE15=Our Love Is Here To Stay
TTITLE16=Fools Rush In
TTITLE17=Autumn In New York
TTITLE18=For All We Know
TTITLE19=But Not For Me
EXTD=
EXTT0=
EXTT1=
EXTT2=
EXTT3=
EXTT4=
EXTT5=
EXTT6=
EXTT7=
EXTT8=
EXTT9=
EXTT10=
EXTT11=
EXTT12=
EXTT13=
EXTT14=
EXTT15=
EXTT16=
EXTT17=
EXTT18=
EXTT19=
PLAYORDER=
